<svg id="Camada_1" data-name="Camada 1" xmlns="http://www.w3.org/2000/svg" viewBox="0 0 3517.28 980.43"><defs><style>.cls-1,.cls-2,.cls-7{fill:#fff;}.cls-2{font-size:347.14px;font-family:ModernSans, Modern Sans;}.cls-3{letter-spacing:-0.2em;}.cls-4{letter-spacing:0em;}.cls-5{font-size:401.1px;}.cls-6,.cls-7{font-size:593.97px;}.cls-7{font-family:MyriadPro-Regular, Myriad Pro;}</style></defs><title>logo patrick</title><path class="cls-1" d="M395.28,763.53c-12.54,0-25.09.12-37.63,0-13.71-.17-27.41-.63-41.12-.89-3.21-.06-4.78-1.23-4.3-4.67,1.07-7.73,1.95-15.47,3-23.19q2.82-20.54,5.8-41.06c2.94-20.12,5.87-40.24,9-60.32.67-4.26-.84-7.55-3-10.73-16.39-24-32.9-47.95-49.26-72q-13.94-20.48-27.55-41.18c-5.21-7.89-10.26-15.9-15.25-23.94-2-3.16-1.34-6.11.86-9.23,17.3-24.61,34.45-49.32,51.66-74q7.16-10.24,14.39-20.42c4.4-6.16,6.65-6.86,13.55-3.8,23.3,10.33,46.55,20.77,69.83,31.13,6.2,2.76,12.44,5.42,18.7,8,5.26,2.2,7.9,5.89,7.16,11.72-.82,6.48-1.43,13-2.47,19.43-.78,4.77-2.85,6.56-7.66,7.22-13.32,1.83-26.62,3.88-40,5.23-7.58.76-13.86-3.34-19.29-8.14-4.38-3.89-8-8.6-12.22-12.74-1.11-1.09-3-1.41-4.5-2.09-.35,1.71-1.4,3.67-.92,5.11,1.81,5.41,4,10.72,6.29,15.94,2.05,4.59.72,8.26-4.18,9.51-2.7.69-5.57.72-8.36,1.12a13,13,0,0,0-4.06,1c-1,.53-2.44,1.75-2.4,2.61a5.1,5.1,0,0,0,2.19,3.19,18.41,18.41,0,0,0,4.52,2.07q15.47,5.76,31,11.42c5.62,2,9.37,6.05,12.28,11.07q15,25.94,30.05,51.85c8.74,15.06,17.57,30.07,26.16,45.21,4.71,8.29,3.95,11-3.82,16.55-2.19,1.55-4.74,2.61-6.81,4.29-1.12.92-1.58,2.65-2.33,4,1.49.77,2.92,1.93,4.51,2.19,1.4.23,3-.51,4.47-.85,3.86-.89,5.81.39,5.68,4.3-.24,7.16-.72,14.31-1.26,21.45-.9,11.87-1.91,23.73-2.92,35.59S413,709.45,412,721.43c-.86,10.46-1.61,20.94-2.42,31.41a30.42,30.42,0,0,1-.43,3.81c-1.11,5.5-2.07,6.28-7.69,6.36-2.06,0-4.11,0-6.16,0Z"/><path class="cls-1" d="M465.64,763.07c-13.82,0-27.65,0-41.48,0-4.43,0-6.22-1.91-6-7q.58-13,1.7-26.06c1-11.49,2.14-22.95,3.24-34.42q2.28-23.7,4.6-47.4c.62-6.37,1.19-12.75,1.94-19.11.53-4.48,2.23-5.44,6.57-4.07a28.49,28.49,0,0,0,5.14,1.53,4.35,4.35,0,0,0,3.33-1.1c.49-.55.23-2.25-.25-3.13-2.09-3.82-4.4-7.52-6.61-11.27q-21.94-37.26-43.88-74.52c-6.64-11.25-13.39-22.44-20-33.7a24.69,24.69,0,0,1-1.67-4.91c1.92-.39,3.87-1.25,5.75-1.09,10.87.91,21.43,2.86,31.36,8,10.23,5.27,20.94,9.63,31.37,14.54a21.13,21.13,0,0,1,5.95,4.1c7.68,7.71,15.24,15.55,22.76,23.42,4.67,4.89,7.89,5.43,13.4,1.44,13.49-9.77,26.86-19.71,40.36-29.47,1.28-.93,3.07-1.16,4.63-1.71.36,1.68,1.27,3.46,1,5-2.58,15.28-4.76,30.66-8.23,45.73-4.63,20.13-10.53,40-23.45,56.72-4.29,5.56-9.07,10.77-13.85,15.94a12.8,12.8,0,0,0-3.79,9.25c0,13.81-.43,27.63-.38,41.45,0,12.41.56,24.82.76,37.22.15,9,.25,17.93.17,26.89-.06,5.87-2.45,8-8.29,8.12-2.05,0-4.1,0-6.15,0Z"/><path class="cls-1" d="M513.48,432.06c-1,1.79-1.56,3.53-2.68,4.82Q491,459.62,471,482.24c-7.11,8.09-14.26,16.14-21.34,24.25-5.43,6.22-6.65,6.6-14.12,3.28Q420.27,503,405.09,496c-5.27-2.42-5.95-4.06-2.61-8.75,7.26-10.23,14.81-20.25,22.32-30.3q13.33-17.85,26.82-35.59c6.34-8.39,12.66-16.78,19.09-25.1,2.45-3.16,4.1-3.33,7-.59q16.4,15.64,32.6,31.49C511.59,428.41,512.34,430.25,513.48,432.06Z"/><path class="cls-1" d="M477.35,543.71a23.08,23.08,0,0,1-3.61-2.44q-9.48-9.53-18.84-19.2c-3.31-3.41-3.36-5.51-.27-8.94l49.17-54.44c4.81-5.32,9.55-10.71,14.51-15.88,3.4-3.54,4.92-3.39,8.09.42,8.27,9.94,16.63,19.82,24.65,30,4.64,5.89,4.39,7.32-1.35,12.06q-34.07,28.14-68.3,56.08A30.93,30.93,0,0,1,477.35,543.71Z"/><path class="cls-1" d="M373.19,393.23c-4.72-1.84-8.8-3.31-12.79-5-11.3-4.8-22.55-9.73-33.86-14.51-4.9-2.07-5.75-4.42-2.52-8.78q19.53-26.38,39.19-52.66c2.93-3.91,5.24-4.53,9.52-1.61,6.87,4.67,13.51,9.71,20,14.87,4.5,3.57,8.52,7.74,12.95,11.42,3.24,2.7,2.63,5.69.8,8.48q-14.22,21.68-28.76,43.15C376.55,390.37,374.71,391.71,373.19,393.23Z"/><path class="cls-1" d="M416.1,442.32c.55-6,1.08-11.95,1.65-17.92.6-6.4-1-9.14-7-12q-10.75-5.11-21.45-10.33c-5.61-2.73-5.93-4.48-2.42-9.74q14-20.91,27.76-41.95c4-6.15,7.79-7.15,13.1-2.18,12.33,11.54,24.34,23.43,36.52,35.14,2.9,2.8,1.46,5.42-.29,7.87-2.83,4-5.84,7.78-8.82,11.63q-12.21,15.8-24.44,31.57c-3.44,4.45-6.77,9-10.3,13.38-.68.83-2.06,1.09-3.12,1.62a13.84,13.84,0,0,1-1.34-3.27,17,17,0,0,1,.26-3.81Z"/><path class="cls-1" d="M385.66,488.6c-3.37-1.15-6.4-2.12-9.39-3.21q-16.23-5.91-32.42-11.87c-.48-.17-1.19-.15-1.43-.48-.87-1.22-1.58-2.55-2.35-3.84,1.32-.41,2.7-1.28,3.95-1.12,3.77.48,7.58,2.27,11.22,1.92,9.48-.94,18.88-2.7,28.31-4.21,5.67-.91,11.31-2,17-2.9,3-.45,4.63,1.46,3.25,4.16a83,83,0,0,1-7,10.95,74.32,74.32,0,0,1-7.08,8.08C388.65,487.18,387,487.77,385.66,488.6Z"/><path class="cls-1" d="M365.28,843.85c-7,0-14.1,0-21.14-.12-19.2-.24-60.76-.89-80.84-1.27-10.55-.2-16.71-4.84-20-8.69s-6.91-10.5-5.57-20.61c.59-4.41,1.57-10.68,1.76-11.83.79-5.62,1.44-10.6,2.13-15.87,1-7.38,2.05-15.74,3.74-27.29l.58-4c3.92-26.77,8-54.46,12.27-81.7-.17-.31-.47-.81-1-1.56-12-17.6-23.18-34.61-34-51.06-10.33-15.74-21-32-32.39-48.74-13.37-19.64-24.66-36.6-37.49-56-4.66-7.06-6.79-10.73-9.05-14.61-1.58-2.71-3.21-5.51-6-10-9.5-15.29.93-33.24,5.86-40.24,13.72-19.52,29.72-42.74,45.19-65.2C202,366.59,214,349.22,224.87,333.6q4-5.78,8.47-12.31c4.4-6.43,8.95-13.08,13.2-19l2.15-3,33.71-22.31c17.15-23.17,34.82-46.9,53.91-72.44,10.76-14.38,26-16.95,40.86-6.86,9.06,6.16,18.52,13.18,29.77,22.11,4.09,3.24,7.74,6.59,11.26,9.83,2.06,1.89,4,3.7,6,5.38l31.88,16.28,2.05,1.93c11.86,11.09,23.64,22.54,35,33.6q8.55,8.31,17.12,16.59L529.58,321c15.65,14.92,31.37,30.1,46.73,45.13a35.89,35.89,0,0,1,6.2,8.41l17.14,14.81,1.05,1.26,7,8.37c9.44,11.3,19.19,23,28.54,34.83l7.55,9.56-35.64,78.64Q607.05,528.52,606,535c-2.71,16.68-5.51,33.93-9.42,51l-1.36,5.94c-6.21,27.13-11.57,50.57-22.6,71-5.7,10.57-18.5,27.67-26.13,35.9l-.07.08c0,9.3-.14,18.68-.28,27.75-.15,10.16-.3,20.66-.27,30.9,0,9.21.25,13.75.5,19,.21,4.45.45,9.5.59,17.88.08,4.94.15,6.73.2,7.91.09,2.34.11,3.19,0,11-.1,10.19-3.47,18.11-10,23.57-7.15,6-15.72,6.75-21.55,6.83-2.12,0-4.25,0-6.38,0h-2.67l-108.47,0c-5.47,0-10.93,0-16.39,0S370.81,843.85,365.28,843.85Zm-85.63-41.11c21.34.37,50,.81,65,1,12.27.15,24.83.11,37,.07l16.5,0,108.47,0h.61c-.05-1.36-.13-3.45-.21-8.65-.13-7.77-.35-12.29-.56-16.66-.25-5.49-.5-10.67-.54-20.76,0-10.6.13-21.29.28-31.63.13-9.08.27-18.47.27-27.63,0-10.24,3.52-19,10.74-26.8,6.17-6.66,16.59-20.9,20.26-27.71,8.45-15.66,13-35.64,18.81-60.94l1.37-6c3.62-15.76,6.19-31.61,8.92-48.4.85-5.25,1.7-10.5,2.59-15.74l.43-2.56,27.69-61.11c-6.7-8.26-13.56-16.49-20.26-24.51l-6-7.16-19.43-16.79L550,398.22c-.83-1.32-1.5-2.52-2-3.48l-.44-.78c-14.93-14.6-30.19-29.34-45.39-43.83l-19.42-17.77q-8.74-8.42-17.44-16.89c-10.6-10.3-21.54-20.92-32.45-31.18l-30.89-15.78-1.71-1.42c-3.23-2.69-6.2-5.42-9.07-8-3.14-2.89-6.11-5.61-9.06-8-7.21-5.72-13.59-10.57-19.55-14.87-17.62,23.59-34.06,45.7-50.09,67.35l-2.1,2.83L277,328.5c-3.43,4.87-7.07,10.19-10.61,15.37-2.9,4.24-5.9,8.62-8.68,12.61-10.84,15.53-22.77,32.85-35.4,51.19-15.53,22.54-31.58,45.84-45.41,65.52-.41.57-.79,1.19-1.14,1.79,1.24,2.08,2.23,3.77,3.15,5.35,2.14,3.68,3.83,6.58,7.87,12.69,12.74,19.29,23.93,36.12,37.17,55.56,11.58,17,22.35,33.42,32.78,49.31,10.69,16.3,21.74,33.15,33.55,50.45,2.46,3.6,9.94,14.56,7.55,29.72-4.3,27.22-8.37,55-12.3,81.88l-.59,4c-1.64,11.23-2.66,19.08-3.65,26.67C280.73,794.69,280.23,798.58,279.65,802.74ZM547.23,393.46Z"/><path class="cls-1" d="M356.78,925.48c-9.71,0-19.49,0-29.2-.15-11.68-.15-33.31-.21-56.22-.28-30.56-.1-62.15-.19-77.63-.49-9.8-.18-17.47-3.42-22.81-9.64-3.54-4.11-7.45-11.3-6-22.16.84-6.36,2.2-15.8,2.26-16.2,1.12-7.87,2-14.84,3-22.22,1.32-10.19,2.83-21.74,5.16-37.66,5.76-39.39,8.56-57.27,14.91-97.45.17-1.07.36-2.29-2.72-6.81-16.55-24.24-30.35-46.09-43.7-67.21-12.94-20.49-26.32-41.68-42.15-64.93C83.11,553,73.9,539.18,55.83,511.81c-6.34-9.58-9.1-14.34-12.31-19.84-2.21-3.8-4.5-7.73-8.45-14.09-9.5-15.29-3.46-36.82,3.86-47.23,15.34-21.82,33.57-47.39,52.88-74.46C115,323.7,139,290.1,157.69,263.25c3.73-5.35,7.63-11.06,11.76-17.1,6.07-8.87,12.35-18,18.19-26.22l3.06-4.28,57.62-26.82c23.68-32,48.09-64.78,74.49-100.08,12.31-16.47,29.1-19.29,46.07-7.75,12.4,8.43,25.35,18,40.77,30.27,5.44,4.32,10.38,8.86,15.16,13.25,3.14,2.88,6.13,5.63,9.15,8.21l44,22.47,2.06,1.92c16.37,15.32,32.65,31.14,48.4,46.44,7.79,7.56,15.85,15.39,23.79,23L578.88,251c21.63,20.62,43.37,41.62,64.62,62.41a44.83,44.83,0,0,1,7.77,10.82,2,2,0,0,0,.14.25l24.27,21,1.05,1.27q4.83,5.81,9.68,11.6c13,15.59,26.48,31.72,39.36,48l7.54,9.56L685.5,521.47c-5.07,29.67-9.49,49.43-16,78l-1.88,8.22c-8.47,37-15.79,69-30.56,96.36-7.63,14.15-24.79,37.08-35,48.13-2.06,2.22-2.14,3-2.14,4.69,0,13.49-.21,21-.41,28.29-.21,7.6-.4,14.78-.35,28.57,0,12.92.34,19.28.69,26.65.29,6.11.62,13,.81,24.51.12,6.93.22,9.45.28,11.12.12,3.09.14,4.23,0,14.86-.12,12.7-5,34.06-36.11,34.47-2.95,0-5.86,0-8.67,0h-3.76l-150.16.07c-7.56,0-15.12,0-22.69.05S364.42,925.48,356.78,925.48ZM206.41,884.73c16.77.17,41.23.24,65.07.32,23,.07,44.73.13,56.6.28,17.05.21,34.47.16,51.31.11,7.6,0,15.2-.05,22.8-.05l150.16-.07h8.59c0-5.27,0-6-.06-7.81s-.18-4.63-.3-12c-.18-10.86-.48-17.18-.77-23.29-.36-7.51-.7-14.6-.74-28.4-.05-14.4.16-22.23.36-29.8.2-7,.39-14.26.4-27.21,0-12.15,4.19-22.58,12.81-31.88,8.21-8.86,23.29-29,29.17-39.92,12.19-22.59,18.62-50.7,26.76-86.29l1.9-8.27c6.59-28.64,10.95-48.2,16-78.23l.44-2.56,39.87-88C676.56,409,666,396.31,655.7,384L647,373.6l-26.51-22.92-1.58-2.49c-1-1.65-1.91-3.2-2.6-4.45-.4-.71-.92-1.63-1.22-2.12-21-20.49-42.38-41.18-63.69-61.51l-26.8-24.52c-8.07-7.76-16.23-15.68-24.11-23.34-14.95-14.53-30.4-29.53-45.81-44l-43-21.95L410,164.87c-4.32-3.6-8.36-7.3-12.27-10.89-4.45-4.09-8.65-7.95-13-11.37-12.58-10-23.37-18.08-33.5-25.16-26.12,35-50.32,67.47-73.85,99.26l-3,4.09-57.26,26.66c-4.75,6.75-9.79,14.11-14.69,21.27-4,5.85-8.14,11.9-12,17.4-18.85,27-42.88,60.71-66.12,93.29-19.26,27-37.46,52.52-52.72,74.24a14.75,14.75,0,0,0-1.43,5c3.56,5.77,5.84,9.67,7.86,13.16,3,5.19,5.41,9.28,11.12,17.93,18,27.2,27.12,41,45.52,68,16.22,23.82,29.79,45.3,42.91,66.08s26.76,42.37,42.91,66c5.17,7.56,11.74,19.49,9.2,35.6-6.32,40-9.11,57.83-14.84,97-2.29,15.61-3.71,26.5-5.08,37-1,7.5-1.9,14.59-3,22.72C206.76,882.27,206.62,883.24,206.41,884.73ZM615,341.41Z"/><text class="cls-2" transform="translate(836.46 334.05)">ME<tspan class="cls-3" x="437.39" y="0"> </tspan><tspan x="576.24" y="0">CONTA</tspan><tspan class="cls-3" x="1806.5" y="0"> </tspan><tspan class="cls-4" x="1945.35" y="0">SUA</tspan><tspan class="cls-5" x="2650.39" y="0"> </tspan><tspan class="cls-6"><tspan x="0" y="590.15">HISTORIA</tspan></tspan></text><text class="cls-7" transform="translate(2242.41 887.63)">´</text></svg>